<svg width="139" height="34" viewBox="0 0 139 34" fill="none" xmlns="http://www.w3.org/2000/svg">
<path d="M16.4587 3.25C8.86874 3.25 2.70874 9.41 2.70874 17C2.70874 24.59 8.86874 30.75 16.4587 30.75C24.0487 30.75 30.2087 24.59 30.2087 17C30.2087 9.41 24.0625 3.25 16.4587 3.25ZM23.925 23.0913C22.2337 25.525 19.4562 26.9688 16.5 26.9688C13.5437 26.9688 10.7662 25.525 9.07499 23.0913C8.74499 22.6238 8.86874 21.9775 9.33624 21.6613C9.80374 21.3313 10.45 21.455 10.7662 21.9225C12.0725 23.7925 14.2175 24.92 16.5 24.92C18.7825 24.92 20.9275 23.8062 22.2337 21.9225C22.5637 21.455 23.1962 21.345 23.6637 21.6613C24.145 21.9775 24.255 22.6238 23.925 23.0913Z" fill="#2995E2"/>
<path d="M44.008 23V12.072H46.216V16.632H50.456V12.072H52.664V23H50.456V18.488H46.216V23H44.008ZM57.7218 23.176C56.8364 23.176 56.1324 23.0267 55.6098 22.728C55.0978 22.4293 54.7298 21.976 54.5058 21.368C54.2818 20.76 54.1698 19.9973 54.1698 19.08C54.1698 18.088 54.3084 17.2773 54.5858 16.648C54.8738 16.0187 55.2898 15.5547 55.8338 15.256C56.3778 14.9467 57.0498 14.792 57.8498 14.792C59.0338 14.792 59.9244 15.0907 60.5218 15.688C61.1298 16.2853 61.4338 17.2293 61.4338 18.52L61.3378 19.704H56.3138C56.3244 20.3013 56.4471 20.7493 56.6818 21.048C56.9164 21.3467 57.3218 21.496 57.8978 21.496C58.2284 21.496 58.5911 21.4907 58.9858 21.48C59.3804 21.4587 59.7698 21.4373 60.1538 21.416C60.5484 21.3947 60.8844 21.3733 61.1618 21.352L61.2098 22.84C60.9431 22.8827 60.6071 22.9307 60.2018 22.984C59.7964 23.0373 59.3751 23.08 58.9378 23.112C58.5111 23.1547 58.1058 23.176 57.7218 23.176ZM56.3138 18.344H59.3058C59.3058 17.6187 59.1884 17.112 58.9538 16.824C58.7298 16.536 58.3618 16.392 57.8498 16.392C57.3484 16.392 56.9644 16.5413 56.6978 16.84C56.4418 17.1387 56.3138 17.64 56.3138 18.344ZM62.9128 23V11.688H65.0408V23H62.9128ZM66.8644 26.376V14.968H68.9764L68.9924 15.48C69.1417 15.384 69.3284 15.2827 69.5524 15.176C69.787 15.0693 70.0377 14.9787 70.3044 14.904C70.571 14.8293 70.8324 14.792 71.0884 14.792C72.1657 14.792 72.939 15.1387 73.4084 15.832C73.8777 16.5147 74.1124 17.5547 74.1124 18.952C74.1124 19.9547 73.995 20.7653 73.7604 21.384C73.5257 22.0027 73.147 22.456 72.6244 22.744C72.1124 23.032 71.435 23.176 70.5924 23.176C70.3257 23.176 70.0377 23.1547 69.7284 23.112C69.419 23.0693 69.1737 23.0267 68.9924 22.984V26.376H66.8644ZM70.2564 21.4C70.683 21.4 71.019 21.3093 71.2644 21.128C71.5097 20.9467 71.6804 20.6747 71.7764 20.312C71.883 19.9387 71.9364 19.4693 71.9364 18.904C71.9364 18.0293 71.8137 17.4267 71.5684 17.096C71.3337 16.7547 70.9924 16.584 70.5444 16.584C70.3737 16.584 70.1924 16.6053 70.0004 16.648C69.8084 16.6907 69.6217 16.744 69.4404 16.808C69.259 16.872 69.1097 16.936 68.9924 17V21.288C69.1204 21.2987 69.3017 21.32 69.5364 21.352C69.7817 21.384 70.0217 21.4 70.2564 21.4ZM78.8155 23.176C77.9302 23.176 77.2262 23.0267 76.7035 22.728C76.1915 22.4293 75.8235 21.976 75.5995 21.368C75.3755 20.76 75.2635 19.9973 75.2635 19.08C75.2635 18.088 75.4022 17.2773 75.6795 16.648C75.9675 16.0187 76.3835 15.5547 76.9275 15.256C77.4715 14.9467 78.1435 14.792 78.9435 14.792C80.1275 14.792 81.0182 15.0907 81.6155 15.688C82.2235 16.2853 82.5275 17.2293 82.5275 18.52L82.4315 19.704H77.4075C77.4182 20.3013 77.5408 20.7493 77.7755 21.048C78.0102 21.3467 78.4155 21.496 78.9915 21.496C79.3222 21.496 79.6848 21.4907 80.0795 21.48C80.4742 21.4587 80.8635 21.4373 81.2475 21.416C81.6422 21.3947 81.9782 21.3733 82.2555 21.352L82.3035 22.84C82.0368 22.8827 81.7008 22.9307 81.2955 22.984C80.8902 23.0373 80.4688 23.08 80.0315 23.112C79.6048 23.1547 79.1995 23.176 78.8155 23.176ZM77.4075 18.344H80.3995C80.3995 17.6187 80.2822 17.112 80.0475 16.824C79.8235 16.536 79.4555 16.392 78.9435 16.392C78.4422 16.392 78.0582 16.5413 77.7915 16.84C77.5355 17.1387 77.4075 17.64 77.4075 18.344ZM85.1128 23L83.2088 14.968H85.4968L86.8408 21.192H87.3048L88.6808 14.968H90.8408L88.9368 23H85.1128ZM95.0811 23.176C94.1958 23.176 93.4918 23.0267 92.9691 22.728C92.4571 22.4293 92.0891 21.976 91.8651 21.368C91.6411 20.76 91.5291 19.9973 91.5291 19.08C91.5291 18.088 91.6678 17.2773 91.9451 16.648C92.2331 16.0187 92.6491 15.5547 93.1931 15.256C93.7371 14.9467 94.4091 14.792 95.2091 14.792C96.3931 14.792 97.2838 15.0907 97.8811 15.688C98.4891 16.2853 98.7931 17.2293 98.7931 18.52L98.6971 19.704H93.6731C93.6838 20.3013 93.8065 20.7493 94.0411 21.048C94.2758 21.3467 94.6811 21.496 95.2571 21.496C95.5878 21.496 95.9505 21.4907 96.3451 21.48C96.7398 21.4587 97.1291 21.4373 97.5131 21.416C97.9078 21.3947 98.2438 21.3733 98.5211 21.352L98.5691 22.84C98.3025 22.8827 97.9665 22.9307 97.5611 22.984C97.1558 23.0373 96.7345 23.08 96.2971 23.112C95.8705 23.1547 95.4651 23.176 95.0811 23.176ZM93.6731 18.344H96.6651C96.6651 17.6187 96.5478 17.112 96.3131 16.824C96.0891 16.536 95.7211 16.392 95.2091 16.392C94.7078 16.392 94.3238 16.5413 94.0571 16.84C93.8011 17.1387 93.6731 17.64 93.6731 18.344ZM100.208 23V14.968H102.336V15.912C102.517 15.7733 102.741 15.6293 103.008 15.48C103.275 15.32 103.563 15.176 103.872 15.048C104.192 14.9093 104.496 14.8187 104.784 14.776V16.84C104.507 16.8827 104.213 16.9573 103.904 17.064C103.595 17.16 103.301 17.2667 103.024 17.384C102.757 17.5013 102.528 17.608 102.336 17.704V23H100.208ZM107.864 26.376L108.888 23H107.176L105.272 14.968H107.496L108.92 21.192H109.336L110.76 14.968H112.904L110.136 26.376H107.864ZM117.367 23.176C116.461 23.176 115.73 23.0267 115.175 22.728C114.631 22.4293 114.237 21.9707 113.991 21.352C113.746 20.7227 113.623 19.912 113.623 18.92C113.623 17.96 113.751 17.1813 114.007 16.584C114.263 15.976 114.669 15.528 115.223 15.24C115.778 14.9413 116.493 14.792 117.367 14.792C118.253 14.792 118.967 14.9413 119.511 15.24C120.066 15.528 120.471 15.976 120.727 16.584C120.994 17.1813 121.127 17.96 121.127 18.92C121.127 19.912 121.005 20.7227 120.759 21.352C120.514 21.9707 120.114 22.4293 119.559 22.728C119.015 23.0267 118.285 23.176 117.367 23.176ZM117.367 21.416C117.815 21.416 118.151 21.336 118.375 21.176C118.599 21.0053 118.749 20.7387 118.823 20.376C118.909 20.0027 118.951 19.5173 118.951 18.92C118.951 18.3333 118.903 17.8693 118.807 17.528C118.711 17.176 118.551 16.9253 118.327 16.776C118.103 16.6267 117.783 16.552 117.367 16.552C116.962 16.552 116.642 16.6267 116.407 16.776C116.183 16.9253 116.023 17.176 115.927 17.528C115.831 17.8693 115.783 18.3333 115.783 18.92C115.783 19.5173 115.821 20.0027 115.895 20.376C115.981 20.7387 116.135 21.0053 116.359 21.176C116.583 21.336 116.919 21.416 117.367 21.416ZM122.583 23V14.968H124.711V15.48C124.882 15.3733 125.09 15.272 125.335 15.176C125.58 15.0693 125.836 14.9787 126.103 14.904C126.38 14.8293 126.647 14.792 126.903 14.792C127.65 14.792 128.226 14.9253 128.631 15.192C129.047 15.448 129.34 15.8747 129.511 16.472C129.682 17.0587 129.767 17.848 129.767 18.84V23H127.623V18.952C127.623 18.3973 127.591 17.9547 127.527 17.624C127.463 17.2827 127.34 17.0373 127.159 16.888C126.978 16.7387 126.711 16.664 126.359 16.664C126.167 16.664 125.964 16.6853 125.751 16.728C125.548 16.76 125.351 16.808 125.159 16.872C124.978 16.936 124.828 17 124.711 17.064V23H122.583ZM134.675 23.176C133.79 23.176 133.086 23.0267 132.563 22.728C132.051 22.4293 131.683 21.976 131.459 21.368C131.235 20.76 131.123 19.9973 131.123 19.08C131.123 18.088 131.262 17.2773 131.539 16.648C131.827 16.0187 132.243 15.5547 132.787 15.256C133.331 14.9467 134.003 14.792 134.803 14.792C135.987 14.792 136.878 15.0907 137.475 15.688C138.083 16.2853 138.387 17.2293 138.387 18.52L138.291 19.704H133.267C133.278 20.3013 133.4 20.7493 133.635 21.048C133.87 21.3467 134.275 21.496 134.851 21.496C135.182 21.496 135.544 21.4907 135.939 21.48C136.334 21.4587 136.723 21.4373 137.107 21.416C137.502 21.3947 137.838 21.3733 138.115 21.352L138.163 22.84C137.896 22.8827 137.56 22.9307 137.155 22.984C136.75 23.0373 136.328 23.08 135.891 23.112C135.464 23.1547 135.059 23.176 134.675 23.176ZM133.267 18.344H136.259C136.259 17.6187 136.142 17.112 135.907 16.824C135.683 16.536 135.315 16.392 134.803 16.392C134.302 16.392 133.918 16.5413 133.651 16.84C133.395 17.1387 133.267 17.64 133.267 18.344Z" fill="#2995E2"/>
</svg>
